<?xml version="1.0" encoding="UTF-8" standalone="no"?>
<svg
   xmlns:dc="http://purl.org/dc/elements/1.1/"
   xmlns:cc="http://creativecommons.org/ns#"
   xmlns:rdf="http://www.w3.org/1999/02/22-rdf-syntax-ns#"
   xmlns:svg="http://www.w3.org/2000/svg"
   xmlns="http://www.w3.org/2000/svg"
   xmlns:xlink="http://www.w3.org/1999/xlink"
   xmlns:sodipodi="http://sodipodi.sourceforge.net/DTD/sodipodi-0.dtd"
   xmlns:inkscape="http://www.inkscape.org/namespaces/inkscape"
   height="26"
   width="26"
   version="1.0"
   id="svg1080"
   sodipodi:docname="adt.svg"
   inkscape:version="1.0 (4035a4f, 2020-05-01)">
  <defs
     id="defs1084" />
  <sodipodi:namedview
     inkscape:document-rotation="0"
     pagecolor="#ffffff"
     bordercolor="#666666"
     borderopacity="1"
     objecttolerance="10"
     gridtolerance="10"
     guidetolerance="10"
     inkscape:pageopacity="0"
     inkscape:pageshadow="2"
     inkscape:window-width="1339"
     inkscape:window-height="813"
     id="namedview1082"
     showgrid="false"
     inkscape:zoom="27.384615"
     inkscape:cx="11.648876"
     inkscape:cy="12.342697"
     inkscape:window-x="399"
     inkscape:window-y="95"
     inkscape:window-maximized="0"
     inkscape:current-layer="svg1080" />
  <metadata
     id="metadata1057">
    <rdf:RDF>
      <cc:Work
         rdf:about="">
        <dc:format>image/svg+xml</dc:format>
        <dc:type
           rdf:resource="http://purl.org/dc/dcmitype/StillImage" />
        <dc:title />
      </cc:Work>
    </rdf:RDF>
  </metadata>
  <path
     id="path1059"
     fill="#ffffff"
     stroke-width="1"
     stroke-dasharray="none"
     stroke-miterlimit="4"
     stroke-linecap="round"
     stroke="#000000"
     fill-rule="evenodd"
     d="m 13.818545,14.409091 c 0.168182,1.272727 -2.340909,3.075758 -3.409091,3.787879 -1.3106057,0.878788 -1.3181814,2.045454 -2.2727269,1.893939 -0.4560606,-0.412879 0.6189394,-1.530303 0,-1.515151 -0.4393939,0 0.1439394,0.833333 -0.3787878,1.136363 -0.439394,0 -1.8939394,0.303031 -1.8939394,-1.893939 0,-0.909091 2.6515151,-4.924242 2.6515151,-4.924242 0,0 0.7075757,-0.818182 0.7575757,-1.515152 -0.3174242,-0.435606 -0.1954545,-1.121212 0,-1.5151513 C 9.5496059,9.3098488 10.409454,11 10.409454,11 h 0.757576 c 0,0 0.378788,-1.1363633 1.136364,-1.5151512 C 12.69506,9.2893943 12.682182,11 12.682182,11 c 4.598484,0.437879 7.037878,3.310606 6.818181,12.5 h -9.469697 c 0,-3.712121 3.636364,-2.80303 3.409091,-7.954545"
     stroke-linejoin="miter"
     style="fill:#000000;fill-opacity:1" />
  <path
     id="path1061"
     d="m 7.0458182,17.439394 a 0.3787879,0.3787879 0 1 1 -0.7575758,0 0.3787879,0.3787879 0 1 1 0.7575758,0 z"
     fill="#000000"
     style="stroke-width:0.757576;fill:#ffffff;fill-opacity:1" />
  <path
     id="path1063"
     d="M 10.156273,15 A 0.77886362,1.1158333 30 0 1 8.8072574,14.221212 0.77886362,1.1158333 30 0 1 10.156273,15 Z"
     fill="#000000"
     style="stroke-width:0.757576;fill:#ffffff;fill-opacity:1" />
  <path
     id="path1067"
     fill="#ffffff"
     stroke-width="0.8"
     stroke-dasharray="none"
     stroke-miterlimit="4"
     stroke-linecap="butt"
     stroke="#000000"
     fill-rule="evenodd"
     d="m 18,14 4,-8 -4,4 V 4 l -3,5.125 -2,-5 -2,5 L 8,4 v 6 L 4,6 7,14 c 0,0 2.0349,-2.5 6,-2.5 3.9651,0 5,2.5 5,2.5 z"
     stroke-linejoin="round"
     style="fill:#000000;fill-opacity:1" />
  <path
     style="fill:#000000;fill-opacity:1"
     fill="#ffffff"
     stroke-width="0.75"
     stroke-dasharray="none"
     stroke-miterlimit="4"
     stroke-linecap="butt"
     stroke="#000000"
     stroke-dashoffset="0"
     d="m 5.5,6 a 1.5,1.5 0 0 1 -3,0 1.5,1.5 0 1 1 3,0 z"
     stroke-linejoin="miter"
     id="path3804" />
  <use
     style="fill:#000000;fill-opacity:1"
     id="use1070"
     x="0"
     y="0"
     width="26"
     height="26"
     transform="translate(4,-2)"
     xlink:href="#path3804" />
  <use
     style="fill:#000000;fill-opacity:1"
     id="use1072"
     x="0"
     y="0"
     width="26"
     height="26"
     transform="translate(9,-2)"
     xlink:href="#path3804" />
  <use
     style="fill:#000000;fill-opacity:1"
     id="use1074"
     x="0"
     y="0"
     width="26"
     height="26"
     transform="matrix(-1,0,0,1,26,0)"
     xlink:href="#path3804" />
  <use
     style="fill:#000000;fill-opacity:1"
     id="use1076"
     x="0"
     y="0"
     width="26"
     height="26"
     transform="matrix(-1,0,0,1,22,-2)"
     xlink:href="#path3804" />
  <path
     id="path891"
     d="M 7,14 C 12.817416,8.6910114 17.783708,13.69382 17.783708,13.69382"
     style="fill:none;stroke:#ffffff;stroke-width:1px;stroke-linecap:butt;stroke-linejoin:miter;stroke-opacity:1" />
</svg>
