<?xml version="1.0" encoding="UTF-8" standalone="no"?>
<svg
   xmlns:dc="http://purl.org/dc/elements/1.1/"
   xmlns:cc="http://creativecommons.org/ns#"
   xmlns:rdf="http://www.w3.org/1999/02/22-rdf-syntax-ns#"
   xmlns:svg="http://www.w3.org/2000/svg"
   xmlns="http://www.w3.org/2000/svg"
   xmlns:sodipodi="http://sodipodi.sourceforge.net/DTD/sodipodi-0.dtd"
   xmlns:inkscape="http://www.inkscape.org/namespaces/inkscape"
   inkscape:version="1.0 (4035a4f, 2020-05-01)"
   sodipodi:docname="rpw.svg"
   id="svg981"
   height="45"
   width="45"
   version="1.1">
  <metadata
     id="metadata987">
    <rdf:RDF>
      <cc:Work
         rdf:about="">
        <dc:format>image/svg+xml</dc:format>
        <dc:type
           rdf:resource="http://purl.org/dc/dcmitype/StillImage" />
        <dc:title></dc:title>
      </cc:Work>
    </rdf:RDF>
  </metadata>
  <defs
     id="defs985" />
  <sodipodi:namedview
     inkscape:current-layer="svg981"
     inkscape:window-maximized="0"
     inkscape:window-y="128"
     inkscape:window-x="399"
     inkscape:cy="22.5"
     inkscape:cx="22.5"
     inkscape:zoom="16.333333"
     showgrid="false"
     id="namedview983"
     inkscape:window-height="712"
     inkscape:window-width="1188"
     inkscape:pageshadow="2"
     inkscape:pageopacity="0"
     guidetolerance="10"
     gridtolerance="10"
     objecttolerance="10"
     borderopacity="1"
     bordercolor="#666666"
     pagecolor="#ffffff" />
  <path
     id="path979"
     style="opacity:1;fill:#f4bf43;fill-opacity:1;fill-rule:nonzero;stroke:#000000;stroke-width:1.5;stroke-linecap:round;stroke-linejoin:miter;stroke-miterlimit:4;stroke-dasharray:none;stroke-opacity:1"
     d="M 21.993512,9.0000002 C 19.783893,9.0000002 17.993491,10.79 17.993491,13 c 0,0.89 0.286963,1.71 0.78603,2.38 -1.950104,1.12 -3.280118,3.21 -3.280118,5.62 0,2.03 0.935751,3.84 2.410494,5.03 C 14.909257,27.09 10.5,31.58 10.5,39.5 h 23 c 0,-7.92 -4.410504,-12.41 -7.409897,-13.47 1.469752,-1.19 2.410494,-3 2.410494,-5.03 0,-2.41 -1.330014,-4.5 -3.280118,-5.62 0.48659,-0.67 0.78603,-1.49 0.78603,-2.38 -0.01298,-2.21 -1.803004,-3.9999998 -4.012997,-3.9999998 z" />
</svg>
