<?xml version="1.0" standalone="no"?>
<!DOCTYPE svg PUBLIC "-//W3C//DTD SVG 20010904//EN"
 "http://www.w3.org/TR/2001/REC-SVG-20010904/DTD/svg10.dtd">
<svg version="1.0" xmlns="http://www.w3.org/2000/svg"
 width="1920.000000pt" height="1920.000000pt" viewBox="0 0 1920.000000 1920.000000"
 preserveAspectRatio="xMidYMid meet">
<metadata>
Created by potrace 1.11, written by Peter Selinger 2001-2013
</metadata>
<g transform="translate(0.000000,1920.000000) scale(0.100000,-0.100000)"
fill="#000000" stroke="none">
<path d="M2879 16939 c-100 -35 -275 -190 -371 -328 -137 -197 -190 -390 -183
-666 2 -82 6 -163 9 -180 4 -16 11 -55 17 -85 14 -77 80 -323 89 -335 9 -11
43 -131 56 -195 3 -14 11 -52 19 -85 7 -33 16 -82 19 -110 4 -27 9 -57 11 -65
2 -8 7 -42 11 -75 3 -33 8 -71 10 -85 3 -23 9 -92 19 -210 22 -258 27 -1119
10 -1760 -17 -622 -11 -1610 10 -1800 2 -19 6 -78 10 -130 3 -52 8 -108 10
-125 2 -16 7 -57 10 -90 6 -62 12 -109 20 -160 2 -16 7 -52 11 -80 21 -174 81
-434 146 -643 l42 -132 -43 -133 c-23 -72 -44 -145 -47 -161 -3 -16 -7 -33
-10 -38 -3 -4 -7 -16 -9 -25 -2 -10 -15 -72 -29 -138 -23 -111 -37 -190 -51
-290 -3 -22 -8 -54 -10 -72 -3 -17 -8 -55 -11 -85 -2 -29 -7 -64 -9 -78 -10
-59 -30 -309 -42 -540 -10 -202 -9 -1239 2 -1635 17 -574 11 -1491 -10 -1725
-2 -25 -7 -76 -10 -115 -4 -38 -8 -86 -10 -105 -13 -140 -77 -480 -102 -540
-3 -8 -7 -17 -8 -20 0 -3 -11 -34 -22 -70 -33 -96 -69 -236 -82 -310 -6 -36
-14 -78 -17 -95 -13 -68 -12 -341 2 -418 50 -274 199 -509 435 -686 114 -85
241 -102 355 -46 56 27 207 169 328 307 330 378 629 905 721 1273 15 61 28
119 29 130 2 11 6 29 9 40 3 11 8 38 12 60 3 22 10 69 16 105 5 36 12 76 14
90 5 36 21 170 29 255 5 47 7 77 21 260 17 230 23 444 40 1530 7 395 17 713
30 885 2 30 7 98 10 150 4 52 8 109 10 125 1 17 6 64 9 105 7 75 13 125 21
190 3 19 7 55 10 80 3 25 17 115 32 200 14 85 26 165 28 178 1 13 7 28 12 33
6 6 17 -44 31 -133 33 -215 74 -424 117 -588 14 -52 28 -106 30 -120 31 -141
158 -491 249 -683 140 -296 349 -576 473 -632 50 -24 202 -71 260 -81 15 -3
57 -11 93 -19 129 -27 275 -35 422 -21 80 7 227 45 280 72 17 9 47 17 67 19
107 9 177 19 276 41 140 31 125 27 225 62 340 118 634 307 926 593 l61 60 52
-83 c71 -115 74 -119 88 -137 6 -9 43 -56 82 -105 497 -627 1300 -989 2196
-990 144 0 343 9 395 18 14 3 45 7 70 10 81 10 125 16 146 21 12 2 39 7 60 11
21 3 68 12 104 20 36 9 72 17 80 19 147 32 399 114 586 190 513 209 1025 548
1464 970 125 120 307 313 395 420 22 27 45 53 50 59 23 24 186 236 239 311 32
44 62 87 69 95 20 24 159 238 219 335 95 154 212 364 303 546 l88 176 91 -92
c268 -270 600 -414 966 -418 150 -2 233 7 355 38 125 32 103 25 220 73 282
115 571 391 699 666 242 516 161 1105 -209 1524 -222 251 -552 425 -875 459
-321 33 -625 -34 -895 -201 -101 -61 -168 -117 -271 -221 l-80 -83 -91 182
c-371 735 -824 1350 -1358 1840 -55 51 -127 114 -160 141 -33 28 -62 52 -65
56 -14 15 -159 126 -265 201 -296 210 -603 379 -925 508 -296 118 -665 215
-935 245 -27 3 -59 8 -70 10 -85 17 -444 25 -621 12 -918 -63 -1715 -517
-2146 -1223 l-51 -84 -81 77 c-213 204 -380 327 -606 446 -126 67 -316 143
-400 162 -8 2 -44 11 -80 20 -80 21 -156 34 -235 41 -96 8 -107 10 -175 37
-191 76 -428 92 -665 45 -27 -5 -63 -12 -80 -15 -84 -14 -275 -77 -317 -104
-26 -17 -71 -56 -99 -87 -265 -290 -479 -746 -625 -1333 -29 -118 -33 -134
-40 -169 -3 -14 -15 -77 -28 -140 -13 -63 -34 -181 -47 -262 -13 -82 -27 -148
-30 -148 -4 0 -10 19 -14 43 -4 23 -9 51 -12 62 -9 40 -39 237 -48 310 -9 72
-16 126 -20 155 -2 14 -6 65 -10 114 -4 50 -8 97 -10 105 -1 9 -6 61 -9 116
-4 55 -9 127 -11 160 -17 233 -27 618 -40 1520 -5 348 -8 447 -20 705 -10 211
-18 317 -30 435 -2 22 -7 67 -10 100 -3 33 -8 74 -10 90 -3 17 -7 47 -10 68
-3 20 -7 54 -10 75 -14 96 -39 226 -62 322 -14 58 -26 114 -28 125 -15 103
-33 178 -71 300 -28 87 -36 108 -96 235 -98 209 -253 425 -438 611 -120 121
-266 244 -360 305 -25 16 -47 32 -50 35 -11 14 -107 36 -157 36 -28 0 -75 -8
-104 -18z"/>
</g>
</svg>
