<?xml version="1.0" encoding="UTF-8" standalone="no"?>
<svg
   xmlns:dc="http://purl.org/dc/elements/1.1/"
   xmlns:cc="http://creativecommons.org/ns#"
   xmlns:rdf="http://www.w3.org/1999/02/22-rdf-syntax-ns#"
   xmlns:svg="http://www.w3.org/2000/svg"
   xmlns="http://www.w3.org/2000/svg"
   xmlns:sodipodi="http://sodipodi.sourceforge.net/DTD/sodipodi-0.dtd"
   xmlns:inkscape="http://www.inkscape.org/namespaces/inkscape"
   sodipodi:docname="bdragon.svg"
   inkscape:version="1.0 (4035a4f, 2020-05-01)"
   viewBox="0 0 2048 2048"
   version="1.1"
   width="100%"
   height="100%"
   id="svg2">
  <defs
     id="defs9">
    <inkscape:perspective
       id="perspective10"
       inkscape:persp3d-origin="1024 : 682.66667 : 1"
       inkscape:vp_z="2048 : 1024 : 1"
       inkscape:vp_y="0 : 1000 : 0"
       inkscape:vp_x="0 : 1024 : 1"
       sodipodi:type="inkscape:persp3d" />
    <inkscape:perspective
       sodipodi:type="inkscape:persp3d"
       inkscape:vp_x="0 : 0.5 : 1"
       inkscape:vp_y="0 : 1000 : 0"
       inkscape:vp_z="1 : 0.5 : 1"
       inkscape:persp3d-origin="0.5 : 0.33333333 : 1"
       id="perspective3598" />
    <inkscape:perspective
       sodipodi:type="inkscape:persp3d"
       inkscape:vp_x="0 : 0.5 : 1"
       inkscape:vp_y="0 : 1000 : 0"
       inkscape:vp_z="1 : 0.5 : 1"
       inkscape:persp3d-origin="0.5 : 0.33333333 : 1"
       id="perspective3598-5" />
    <inkscape:perspective
       sodipodi:type="inkscape:persp3d"
       inkscape:vp_x="0 : 0.5 : 1"
       inkscape:vp_y="0 : 1000 : 0"
       inkscape:vp_z="1 : 0.5 : 1"
       inkscape:persp3d-origin="0.5 : 0.33333333 : 1"
       id="perspective3598-3" />
    <inkscape:perspective
       sodipodi:type="inkscape:persp3d"
       inkscape:vp_x="0 : 0.5 : 1"
       inkscape:vp_y="0 : 1000 : 0"
       inkscape:vp_z="1 : 0.5 : 1"
       inkscape:persp3d-origin="0.5 : 0.33333333 : 1"
       id="perspective2853" />
    <inkscape:perspective
       sodipodi:type="inkscape:persp3d"
       inkscape:vp_x="0 : 0.5 : 1"
       inkscape:vp_y="0 : 1000 : 0"
       inkscape:vp_z="1 : 0.5 : 1"
       inkscape:persp3d-origin="0.5 : 0.33333333 : 1"
       id="perspective3651" />
    <inkscape:perspective
       sodipodi:type="inkscape:persp3d"
       inkscape:vp_x="0 : 0.5 : 1"
       inkscape:vp_y="0 : 1000 : 0"
       inkscape:vp_z="1 : 0.5 : 1"
       inkscape:persp3d-origin="0.5 : 0.33333333 : 1"
       id="perspective3710" />
  </defs>
  <sodipodi:namedview
     inkscape:document-rotation="0"
     inkscape:current-layer="svg2"
     inkscape:window-maximized="0"
     inkscape:window-y="90"
     inkscape:window-x="191"
     inkscape:cy="1024"
     inkscape:cx="1024"
     inkscape:zoom="0.11523438"
     showgrid="false"
     id="namedview7"
     inkscape:window-height="656"
     inkscape:window-width="1138"
     inkscape:pageshadow="2"
     inkscape:pageopacity="0"
     guidetolerance="10"
     gridtolerance="10"
     objecttolerance="10"
     borderopacity="1"
     bordercolor="#666666"
     pagecolor="#ffffff" />
  <metadata
     id="metadata12">
    <rdf:RDF>
      <cc:Work
         rdf:about="">
        <dc:format>image/svg+xml</dc:format>
        <dc:type
           rdf:resource="http://purl.org/dc/dcmitype/StillImage" />
        <dc:title></dc:title>
      </cc:Work>
    </rdf:RDF>
  </metadata>
  <path
     sodipodi:nodetypes="ccccccccccccccccccccccccccc"
     id="path3716"
     d="M 659.52543,1848.4068 H 1683.5254 c 56.1144,-14.6582 91.1617,-43.3611 78.1017,-104.1356 l -8.6779,-329.7627 c 195.9407,-59.4465 158.881,-134.4264 8.6779,-216.9492 196.9323,-66.5311 139.679,-133.0621 -8.6779,-199.5932 197.5407,-59.33985 148.4277,-117.1888 -10e-5,-199.59322 248.4193,-109.17637 126.2582,-141.78953 43.3899,-173.55932 79.2407,-83.88701 67.9801,-167.77401 8.6779,-251.66102 l -112.8135,121.49152 -277.6949,-8.67796 c -21.6754,-54.22752 -37.8829,-97.04313 -104.1356,-173.55932 -17.2289,104.26262 -49.4357,193.54736 -112.8136,251.66102 -330.42448,-13.38525 -478.42833,223.79045 -919.86438,0 -167.7478,-32.95793 -110.25822,91.75032 -52.0678,216.94915 159.09604,101.34528 335.54802,87.89898 477.28813,52.0678 52.0678,121.04571 104.13559,151.55227 156.20339,208.27115 25.92448,174.8142 -49.80048,171.7419 -112.81356,190.9153 H 433.89831 c -119.50168,92.4442 -62.06595,135.9268 26.03389,182.2373 52.66065,70.5378 152.72407,76.969 208.27119,8.6779 76.62553,-69.4834 169.33513,-106.7987 269.01695,-130.1695 100.16396,-107.4031 142.00686,-78.7239 173.55936,-26.0338 111.2541,112.0338 3.4709,114.549 -60.7458,138.8474 -36.8174,91.2465 -70.83774,179.4093 -182.23729,260.339 H 650.84746 v 164.8814"
     style="fill:#000000;fill-opacity:1;stroke:#000000;stroke-width:75;stroke-linecap:round;stroke-linejoin:round;stroke-miterlimit:4;stroke-dasharray:none;stroke-opacity:1" />
  <path
     sodipodi:nodetypes="cc"
     id="path3718"
     d="m 1058.7119,754.98305 c 23.1412,34.71196 40.4972,34.71177 86.7797,0"
     style="fill:none;stroke:#ffffff;stroke-width:75;stroke-linecap:round;stroke-linejoin:miter;stroke-miterlimit:4;stroke-dasharray:none;stroke-opacity:1" />
  <path
     sodipodi:nodetypes="ccc"
     id="path3720"
     d="M 373.15254,859.11864 477.28813,971.9322 590.10169,867.79661"
     style="fill:#f9f9f9;fill-opacity:1;stroke:#000000;stroke-width:60;stroke-linecap:butt;stroke-linejoin:miter;stroke-miterlimit:4;stroke-dasharray:none;stroke-opacity:1" />
  <path
     sodipodi:nodetypes="ccc"
     id="path3722"
     d="m 433.8983,1232.2712 69.42374,-112.8135 78.10169,112.8135"
     style="fill:#f9f9f9;fill-opacity:1;stroke:#000000;stroke-width:60;stroke-linecap:butt;stroke-linejoin:miter;stroke-miterlimit:4;stroke-dasharray:none;stroke-opacity:1" />
</svg>
