<?xml version="1.0" encoding="UTF-8" standalone="no"?>
<svg
   xmlns:dc="http://purl.org/dc/elements/1.1/"
   xmlns:cc="http://creativecommons.org/ns#"
   xmlns:rdf="http://www.w3.org/1999/02/22-rdf-syntax-ns#"
   xmlns:svg="http://www.w3.org/2000/svg"
   xmlns="http://www.w3.org/2000/svg"
   xmlns:sodipodi="http://sodipodi.sourceforge.net/DTD/sodipodi-0.dtd"
   xmlns:inkscape="http://www.inkscape.org/namespaces/inkscape"
   version="1.1"
   viewBox="0 0 512 512"
   enable-background="new 0 0 512 512"
   id="svg1715"
   sodipodi:docname="bombw.svg"
   inkscape:version="1.0 (4035a4f, 2020-05-01)">
  <metadata
     id="metadata1721">
    <rdf:RDF>
      <cc:Work
         rdf:about="">
        <dc:format>image/svg+xml</dc:format>
        <dc:type
           rdf:resource="http://purl.org/dc/dcmitype/StillImage" />
        <dc:title></dc:title>
      </cc:Work>
    </rdf:RDF>
  </metadata>
  <defs
     id="defs1719" />
  <sodipodi:namedview
     fit-margin-right="10"
     fit-margin-bottom="10"
     fit-margin-left="10"
     fit-margin-top="10"
     inkscape:document-rotation="0"
     pagecolor="#ffffff"
     bordercolor="#666666"
     borderopacity="1"
     objecttolerance="10"
     gridtolerance="10"
     guidetolerance="10"
     inkscape:pageopacity="0"
     inkscape:pageshadow="2"
     inkscape:window-width="1548"
     inkscape:window-height="744"
     id="namedview1717"
     showgrid="false"
     inkscape:zoom="0.50754247"
     inkscape:cx="258.78639"
     inkscape:cy="62.345578"
     inkscape:window-x="1834"
     inkscape:window-y="119"
     inkscape:window-maximized="0"
     inkscape:current-layer="svg1715" />
  <path
     id="path1701"
     d="m 425.10495,113.4616 c 6.25,-6.25 6.25,-16.374995 0,-22.624992 -6.25,-6.25 -16.375,-6.25 -22.625,0 l -32,31.999992 -9.375,9.375 -20.688,-20.688 c -12.484,-12.499995 -32.766,-12.499995 -45.25,0 l -16,16 c -1.261,1.261 -2.304,2.648 -3.31,4.051 -21.739,-8.561 -45.324,-13.426 -70.065,-13.426 -105.866998,0 -191.999998,86.133 -191.999998,192 0,105.867 86.133,192 191.999998,192 105.867,0 192,-86.133 192,-192 0,-24.741 -4.864,-48.327 -13.426,-70.065 1.402,-1.007 2.79,-2.049 4.051,-3.31 l 16,-16 c 12.5,-12.492 12.5,-32.758 0,-45.25 l -20.688,-20.688 9.375,-9.375 z"
     style="fill:#ffffff;fill-opacity:1;stroke:#000000;stroke-width:15;stroke-miterlimit:4;stroke-dasharray:none;stroke-opacity:1" />
  <path
     id="path852"
     d="m 192,208.23777 c -52.938,0 -96,43.063 -96,96 0,8.836 -7.164,16 -16,16 -8.836,0 -16,-7.164 -16,-16 0,-70.578 57.422,-128 128,-128 8.836,0 16,7.164 16,16 0,8.836 -7.164,16 -16,16 z"
     style="fill:#020202;fill-opacity:1;stroke-width:0.049;stroke-miterlimit:4;stroke-dasharray:none" />
  <path
     style="stroke-width:0.04915657;stroke-miterlimit:4;stroke-dasharray:none;fill:#020202;fill-opacity:1"
     id="path1703"
     d="m 459.02,148.98 c -6.25,-6.25 -16.375,-6.25 -22.625,0 -6.25,6.25 -6.25,16.375 0,22.625 l 16,16 c 3.125,3.125 7.219,4.688 11.313,4.688 4.094,0 8.188,-1.563 11.313,-4.688 6.25,-6.25 6.25,-16.375 0,-22.625 z" />
  <path
     style="stroke-width:0.04915657;stroke-miterlimit:4;stroke-dasharray:none;fill:#020202;fill-opacity:1"
     id="path1705"
     d="m 340.395,75.605 c 3.125,3.125 7.219,4.688 11.313,4.688 4.094,0 8.188,-1.563 11.313,-4.688 6.25,-6.25 6.25,-16.375 0,-22.625 l -16,-16 c -6.25,-6.25 -16.375,-6.25 -22.625,0 -6.25,6.25 -6.25,16.375 0,22.625 z" />
  <path
     style="stroke-width:0.04915657;stroke-miterlimit:4;stroke-dasharray:none;fill:#020202;fill-opacity:1"
     id="path1707"
     d="m 400,64 c 8.844,0 16,-7.164 16,-16 V 16 C 416,7.164 408.844,0 400,0 391.156,0 384,7.164 384,16 v 32 c 0,8.836 7.156,16 16,16 z" />
  <path
     style="stroke-width:0.04915657;stroke-miterlimit:4;stroke-dasharray:none;fill:#020202;fill-opacity:1"
     id="path1709"
     d="m 496,96.586 h -32 c -8.844,0 -16,7.164 -16,16 0,8.836 7.156,16 16,16 h 32 c 8.844,0 16,-7.164 16,-16 0,-8.836 -7.156,-16 -16,-16 z" />
  <path
     style="stroke-width:0.04915657;stroke-miterlimit:4;stroke-dasharray:none;fill:#020202;fill-opacity:1"
     id="path1711"
     d="m 436.98,75.605 c 3.125,3.125 7.219,4.688 11.313,4.688 4.094,0 8.188,-1.563 11.313,-4.688 l 32,-32 c 6.25,-6.25 6.25,-16.375 0,-22.625 -6.25,-6.25 -16.375,-6.25 -22.625,0 l -32,32 c -6.251,6.25 -6.251,16.375 -10e-4,22.625 z" />
</svg>
