<?xml version="1.0" encoding="UTF-8" standalone="no"?>
<svg
   xmlns:dc="http://purl.org/dc/elements/1.1/"
   xmlns:cc="http://creativecommons.org/ns#"
   xmlns:rdf="http://www.w3.org/1999/02/22-rdf-syntax-ns#"
   xmlns:svg="http://www.w3.org/2000/svg"
   xmlns="http://www.w3.org/2000/svg"
   xmlns:sodipodi="http://sodipodi.sourceforge.net/DTD/sodipodi-0.dtd"
   xmlns:inkscape="http://www.inkscape.org/namespaces/inkscape"
   width="200mm"
   height="200mm"
   viewBox="0 0 200 200"
   version="1.1"
   id="svg8"
   inkscape:version="1.0 (4035a4f, 2020-05-01)"
   sodipodi:docname="pawn.svg">
  <defs
     id="defs2">
    <inkscape:path-effect
       effect="mirror_symmetry"
       start_point="99.999999,-10.583334"
       end_point="99.999999,289.41666"
       center_point="99.999999,139.41666"
       id="path-effect898"
       is_visible="true"
       lpeversion="1"
       mode="vertical"
       discard_orig_path="false"
       fuse_paths="true"
       oposite_fuse="false"
       split_items="false" />
    <inkscape:path-effect
       effect="mirror_symmetry"
       start_point="99.999999,-30.69168"
       end_point="99.999999,269.30832"
       center_point="99.999999,119.30832"
       id="path-effect891"
       is_visible="true"
       lpeversion="1"
       mode="vertical"
       discard_orig_path="true"
       fuse_paths="false"
       oposite_fuse="true"
       split_items="true" />
  </defs>
  <sodipodi:namedview
     id="base"
     pagecolor="#ffffff"
     bordercolor="#666666"
     borderopacity="1.0"
     inkscape:pageopacity="0.0"
     inkscape:pageshadow="2"
     inkscape:zoom="0.35"
     inkscape:cx="-195.71429"
     inkscape:cy="97.532493"
     inkscape:document-units="px"
     inkscape:current-layer="g875"
     inkscape:document-rotation="0"
     showgrid="false"
     inkscape:pagecheckerboard="true"
     inkscape:window-width="1252"
     inkscape:window-height="943"
     inkscape:window-x="206"
     inkscape:window-y="23"
     inkscape:window-maximized="0" />
  <metadata
     id="metadata5">
    <rdf:RDF>
      <cc:Work
         rdf:about="">
        <dc:format>image/svg+xml</dc:format>
        <dc:type
           rdf:resource="http://purl.org/dc/dcmitype/StillImage" />
        <dc:title />
      </cc:Work>
    </rdf:RDF>
  </metadata>
  <g
     inkscape:label="Layer 1"
     inkscape:groupmode="layer"
     id="layer1"
     style="display:none">
    <circle
       style="fill:#e8e8e8;fill-opacity:1;stroke-width:0.264583"
       id="path14"
       cx="102.05356"
       cy="105.07736"
       r="41.577381" />
    <path
       style="fill:#e8e8e8;fill-opacity:1;stroke-width:0.755952"
       d="m 31.768917,226.42693 v -14.72187 l 11.843202,-0.20819 11.843205,-0.20818 14.161857,-35.90774 c 9.434767,-23.92208 14.5024,-35.86386 15.182093,-35.7763 0.561129,0.0723 3.571576,0.70086 6.689879,1.39683 6.844315,1.52758 15.205687,1.11613 21.670517,-1.06639 2.41763,-0.81618 4.46298,-1.41667 4.54523,-1.33442 0.0823,0.0823 6.58655,16.47071 14.45399,36.41879 l 14.30441,36.26923 11.82245,0.20818 11.82245,0.20819 v 14.72187 14.72188 H 100.93856 31.768917 Z"
       id="path866" />
  </g>
  <g
     id="g875"
     inkscape:groupmode="layer"
     inkscape:label="Layer 1 copy">
    <g
       style="fill:#facba2;fill-opacity:1"
       id="g876">
      <g
         style="fill:#facba2;fill-opacity:1"
         id="g866">
        <g
           style="fill:#facba2;fill-opacity:1"
           id="g865">
          <g
             style="fill:#facba2;fill-opacity:1"
             id="g854">
            <path
               style="fill:#facba2;fill-opacity:1;stroke:none;stroke-width:0.26458300000000001px;stroke-linecap:butt;stroke-linejoin:miter;stroke-opacity:1"
               d="M 99.999999,238.88095 H 30.994048 v 24.19047 h 69.005951 69.005951 v -24.19047 z"
               id="path896"
               inkscape:path-effect="#path-effect898"
               inkscape:original-d="M 108.10119,238.88095 H 30.994048 v 24.19047 h 84.666662"
               transform="translate(0,-75.141671)" />
            <circle
               r="41.577381"
               cy="54.806545"
               cx="101.52438"
               id="circle871"
               style="fill:#facba2;fill-opacity:1;stroke-width:0.264583" />
          </g>
          <path
             transform="scale(0.26458333)"
             id="path858"
             d="m 304.28571,620.99792 c 0,-2.44469 43.00011,-208.80465 43.58644,-209.1738 0.3846,-0.24215 16.12785,-12.1475 34.98499,-26.45635 21.21084,-16.09484 37.4593,-26.36296 42.60769,-26.92568 8.29848,-0.90703 8.50195,-0.54259 72.07158,129.0904 35.06228,71.5 63.78168,130.96429 63.82088,132.14286 0.0392,1.17857 -57.78586,2.14286 -128.50015,2.14286 -70.71429,0 -128.57143,-0.36913 -128.57143,-0.82029 z"
             style="fill:#facba2;fill-opacity:1;stroke-width:2.85714" />
        </g>
        <path
           transform="scale(0.26458333)"
           id="path857"
           d="m 304.28571,620.99792 c 0,-2.44469 43.00011,-208.80465 43.58644,-209.1738 0.3846,-0.24215 16.12785,-12.07529 34.98499,-26.29589 18.85714,-14.22059 37.80482,-26.6789 42.10595,-27.68514 7.67906,-1.79648 8.30372,-0.8616 34.60246,51.78709 36.4153,72.90151 101.86302,208.03914 101.86302,210.32861 0,1.02268 -57.85714,1.85942 -128.57143,1.85942 -70.71429,0 -128.57143,-0.36913 -128.57143,-0.82029 z"
           style="fill:#facba2;fill-opacity:1;stroke-width:2.85714" />
      </g>
      <path
         inkscape:path-effect="#path-effect891"
         inkscape:original-d="m 50.648809,218.47024 35.529762,-72.57143 h 27.642859 l 35.52976,72.57143 z"
         transform="translate(3.6666667e-8,-53.975)"
         id="path889"
         d="m 50.648809,218.47024 35.529762,-72.57143 h 27.642859 l 35.52976,72.57143 z"
         style="fill:#facba2;fill-opacity:1;stroke:none" />
    </g>
    <path
       style="fill:#eeaa92;fill-opacity:1;stroke:none;stroke-width:0.755952"
       d="m 31.372024,175.55937 v -11.71726 h 19.65476 19.654763 v 11.71726 11.71726 H 51.026784 31.372024 Z"
       id="path923" />
    <path
       style="fill:#eeaa92;fill-opacity:1;stroke-width:0.755952"
       d="M 91.09226,94.649627 C 79.171574,91.353647 68.567773,82.350427 63.941999,71.597497 61.915764,66.887357 60.129427,58.859267 60.11134,54.381877 l -0.01312,-3.24913 3.212796,2.18921 c 9.930156,6.76645 27.999814,15.57375 51.593744,25.14723 7.89971,3.20537 14.34702,6.12139 14.32737,6.48006 -0.0628,1.14653 -9.20115,6.88807 -13.731,8.62707 -5.74855,2.20686 -18.311211,2.75926 -24.408865,1.07331 z"
       id="path887" />
    <path
       style="fill:#eeaa92;fill-opacity:1;stroke:none;stroke-width:0.755952"
       d="m 51.026784,165.86642 c 0,-0.17561 7.342108,-15.22851 16.315796,-33.4509 8.973688,-18.22238 16.834731,-34.407273 17.468985,-35.966433 1.148016,-2.82209 1.173075,-2.83482 5.5831,-2.83482 3.214121,0 4.340283,0.25934 4.103351,0.94495 -0.179607,0.51971 -3.398935,16.082883 -7.154061,34.584823 -3.755128,18.50193 -7.005769,34.40528 -7.223646,35.34077 -0.393655,1.69023 -0.486047,1.70089 -14.744832,1.70089 -7.89178,0 -14.348693,-0.14368 -14.348693,-0.31928 z"
       id="path925" />
    <path
       style="fill:#eeaa92;fill-opacity:1;stroke:none;stroke-width:0.26458300000000001px;stroke-linecap:butt;stroke-linejoin:miter;stroke-opacity:1"
       d="M 113.82143,91.923717 80.886905,117.17252 86.178569,91.923717 Z"
       id="path949" />
    <path
       style="fill:#fbdeb7;fill-opacity:1;stroke:none;stroke-width:0.26458300000000001px;stroke-linecap:butt;stroke-linejoin:miter;stroke-opacity:1"
       d="m 50.648809,218.47024 35.529762,-72.57143 h 27.642859 l 35.52976,72.57143 z"
       id="path854"
       transform="matrix(-1,0,0,1,755.90551,-53.975)" />
    <path
       transform="scale(0.26458333)"
       id="path878"
       d="m 304.28571,620.99792 c 0,-2.44469 43.00011,-208.80465 43.58644,-209.1738 0.3846,-0.24215 16.12785,-12.07529 34.98499,-26.29589 18.85714,-14.22059 37.8418,-26.68818 42.18813,-27.70576 l 7.90241,-1.85014 64.24044,130.50806 c 35.33225,71.77944 64.24045,131.59476 64.24045,132.92294 0,1.32818 -57.85714,2.41488 -128.57143,2.41488 -70.71429,0 -128.57143,-0.36913 -128.57143,-0.82029 z"
       style="fill:#facba2;fill-opacity:1;stroke-width:2.85714" />
    <path
       transform="scale(0.26458333)"
       id="path880"
       d="M 471.42857,311.64177 C 463.57143,307.80739 434,294.9248 405.71428,283.01381 341.60912,256.01939 281.18335,226.35604 251.76216,207.43784 l -22.52354,-14.48292 1.73091,-14.85407 c 2.70179,-23.18569 22.13123,-59.49917 42.92864,-80.233283 51.61724,-51.460168 132.81276,-60.858226 192.0222,-22.225803 45.79234,29.878176 68.91943,69.566706 71.861,123.321256 1.71217,31.28838 -2.67217,52.96968 -16.01797,79.2114 -9.29223,18.27121 -27.4985,40.88284 -32.70033,40.6128 -1.84183,-0.0956 -9.77736,-3.31107 -17.6345,-7.14545 z"
       style="fill:#facba2;fill-opacity:1;stroke-width:2.85714" />
  </g>
</svg>
