<?xml version="1.0" encoding="UTF-8" standalone="no"?>
<svg
   xmlns:dc="http://purl.org/dc/elements/1.1/"
   xmlns:cc="http://creativecommons.org/ns#"
   xmlns:rdf="http://www.w3.org/1999/02/22-rdf-syntax-ns#"
   xmlns:svg="http://www.w3.org/2000/svg"
   xmlns="http://www.w3.org/2000/svg"
   xmlns:sodipodi="http://sodipodi.sourceforge.net/DTD/sodipodi-0.dtd"
   xmlns:inkscape="http://www.inkscape.org/namespaces/inkscape"
   width="200mm"
   height="200mm"
   viewBox="0 0 200 200"
   version="1.1"
   id="svg8"
   inkscape:version="1.0 (4035a4f, 2020-05-01)"
   sodipodi:docname="pawn.svg">
  <defs
     id="defs2">
    <inkscape:path-effect
       split_items="true"
       oposite_fuse="true"
       fuse_paths="false"
       discard_orig_path="true"
       mode="vertical"
       lpeversion="1"
       is_visible="true"
       id="path-effect1583"
       center_point="99.999999,119.30832"
       end_point="99.999999,269.30832"
       start_point="99.999999,-30.69168"
       effect="mirror_symmetry" />
    <inkscape:path-effect
       split_items="false"
       oposite_fuse="false"
       fuse_paths="true"
       discard_orig_path="false"
       mode="vertical"
       lpeversion="1"
       is_visible="true"
       id="path-effect1581"
       center_point="99.999999,139.41666"
       end_point="99.999999,289.41666"
       start_point="99.999999,-10.583334"
       effect="mirror_symmetry" />
    <inkscape:path-effect
       effect="mirror_symmetry"
       start_point="99.999999,-10.583334"
       end_point="99.999999,289.41666"
       center_point="99.999999,139.41666"
       id="path-effect898"
       is_visible="true"
       lpeversion="1"
       mode="vertical"
       discard_orig_path="false"
       fuse_paths="true"
       oposite_fuse="false"
       split_items="false" />
    <inkscape:path-effect
       effect="mirror_symmetry"
       start_point="99.999999,-30.69168"
       end_point="99.999999,269.30832"
       center_point="99.999999,119.30832"
       id="path-effect891"
       is_visible="true"
       lpeversion="1"
       mode="vertical"
       discard_orig_path="true"
       fuse_paths="false"
       oposite_fuse="true"
       split_items="true" />
  </defs>
  <sodipodi:namedview
     id="base"
     pagecolor="#ffffff"
     bordercolor="#666666"
     borderopacity="1.0"
     inkscape:pageopacity="0.0"
     inkscape:pageshadow="2"
     inkscape:zoom="0.35355339"
     inkscape:cx="-65.606641"
     inkscape:cy="357.74779"
     inkscape:document-units="px"
     inkscape:current-layer="g1653"
     inkscape:document-rotation="0"
     showgrid="false"
     inkscape:pagecheckerboard="true"
     inkscape:window-width="1252"
     inkscape:window-height="943"
     inkscape:window-x="206"
     inkscape:window-y="23"
     inkscape:window-maximized="0" />
  <metadata
     id="metadata5">
    <rdf:RDF>
      <cc:Work
         rdf:about="">
        <dc:format>image/svg+xml</dc:format>
        <dc:type
           rdf:resource="http://purl.org/dc/dcmitype/StillImage" />
        <dc:title />
      </cc:Work>
    </rdf:RDF>
  </metadata>
  <g
     style="display:none"
     id="g875"
     inkscape:groupmode="layer"
     inkscape:label="Layer 1 copy">
    <path
       transform="scale(0.26458333)"
       d="M 383.53906,50 A 157.14286,157.14286 0 0 0 227.18359,193.28516 l -0.041,-0.0273 0.002,0.47852 a 157.14286,157.14286 0 0 0 -0.57226,13.40625 157.14286,157.14286 0 0 0 96.78906,145.0918 L 192.82617,618.85742 h -75.68359 v 91.42774 h 260.81054 260.8086 v -91.42774 h -75.6836 L 434.3418,355.90625 A 157.14286,157.14286 0 0 0 540.85742,207.14258 157.14286,157.14286 0 0 0 383.71484,50 a 157.14286,157.14286 0 0 0 -0.17578,0 z"
       style="fill:none;fill-opacity:1;stroke:#5a5a5a;stroke-width:30;stroke-miterlimit:4;stroke-dasharray:none;stroke-opacity:1"
       id="circle871" />
    <path
       style="fill:#666666;fill-opacity:1;stroke:none;stroke-width:7.9375;stroke-linecap:butt;stroke-linejoin:miter;stroke-miterlimit:4;stroke-dasharray:none;stroke-opacity:1"
       d="m 50.648809,218.47024 35.529762,-72.57143 h 27.642859 l 35.52976,72.57143 z"
       id="path854"
       transform="matrix(-1,0,0,1,755.90551,-53.975)" />
  </g>
  <g
     style="display:none"
     inkscape:label="sea"
     inkscape:groupmode="layer"
     id="g1579">
    <path
       d="M 143.10176,54.806545 A 41.577381,41.577381 0 0 1 101.52438,96.383926 41.577381,41.577381 0 0 1 59.947002,54.806545 41.577381,41.577381 0 0 1 101.52438,13.229164 41.577381,41.577381 0 0 1 143.10176,54.806545"
       style="fill:#facba2;fill-opacity:1;stroke-width:0.264583"
       id="circle1549" />
    <path
       id="path1547"
       d="M 99.999999,163.73928 H 30.994048 v 24.19047 h 69.005951 69.005951 v -24.19047 z"
       style="fill:#facba2;fill-opacity:1;stroke:none;stroke-width:0.264583px;stroke-linecap:butt;stroke-linejoin:miter;stroke-opacity:1" />
    <path
       id="path1553"
       d="m 80.508926,164.3057 c 0,-0.64683 11.377113,-55.24623 11.532246,-55.3439 0.101759,-0.0641 4.26716,-3.21403 9.256448,-6.99991 5.61203,-4.258429 9.9111,-6.975202 11.27328,-7.124088 2.19564,-0.239985 2.24948,-0.14356 19.06894,34.155168 9.27689,18.91771 16.87557,34.65097 16.88594,34.9628 0.0104,0.31183 -15.28917,0.56696 -33.999,0.56696 -18.709819,0 -34.017854,-0.0977 -34.017854,-0.21703 z"
       style="fill:#facba2;fill-opacity:1;stroke-width:0.755952" />
    <path
       style="fill:#facba2;fill-opacity:1;stroke-width:0.755952"
       d="m 80.508926,164.3057 c 0,-0.64683 11.377113,-55.24623 11.532246,-55.3439 0.101759,-0.0641 4.26716,-3.19492 9.256448,-6.95746 4.98928,-3.762528 10.00252,-7.058789 11.14053,-7.325024 2.03175,-0.475318 2.19703,-0.227965 9.15523,13.702004 9.63488,19.28852 26.95126,55.04369 26.95126,55.64944 0,0.27059 -15.30803,0.49197 -34.01786,0.49197 -18.709819,0 -34.017854,-0.0977 -34.017854,-0.21703 z"
       id="path1557" />
    <path
       id="path1561"
       d="M 50.648809,164.49524 86.178571,91.92381 h 27.642859 l 35.52976,72.57143 z"
       style="fill:#facba2;fill-opacity:1;stroke:none" />
    <path
       id="path1565"
       d="m 31.372024,175.55937 v -11.71726 h 19.65476 19.654763 v 11.71726 11.71726 H 51.026784 31.372024 Z"
       style="fill:#eeaa92;fill-opacity:1;stroke:none;stroke-width:0.755952" />
    <path
       id="path1567"
       d="M 91.09226,94.649627 C 79.171574,91.353647 68.567773,82.350427 63.941999,71.597497 61.915764,66.887357 60.129427,58.859267 60.11134,54.381877 l -0.01312,-3.24913 3.212796,2.18921 c 9.930156,6.76645 27.999814,15.57375 51.593744,25.14723 7.89971,3.20537 14.34702,6.12139 14.32737,6.48006 -0.0628,1.14653 -9.20115,6.88807 -13.731,8.62707 -5.74855,2.20686 -18.311211,2.75926 -24.408865,1.07331 z"
       style="fill:#eeaa92;fill-opacity:1;stroke-width:0.755952" />
    <path
       id="path1569"
       d="m 51.026784,165.86642 c 0,-0.17561 7.342108,-15.22851 16.315796,-33.4509 8.973688,-18.22238 16.834731,-34.407273 17.468985,-35.966433 1.148016,-2.82209 1.173075,-2.83482 5.5831,-2.83482 3.214121,0 4.340283,0.25934 4.103351,0.94495 -0.179607,0.51971 -3.398935,16.082883 -7.154061,34.584823 -3.755128,18.50193 -7.005769,34.40528 -7.223646,35.34077 -0.393655,1.69023 -0.486047,1.70089 -14.744832,1.70089 -7.89178,0 -14.348693,-0.14368 -14.348693,-0.31928 z"
       style="fill:#eeaa92;fill-opacity:1;stroke:none;stroke-width:0.755952" />
    <path
       id="path1571"
       d="M 113.82143,91.923717 80.886905,117.17252 86.178569,91.923717 Z"
       style="fill:#eeaa92;fill-opacity:1;stroke:none;stroke-width:0.264583px;stroke-linecap:butt;stroke-linejoin:miter;stroke-opacity:1" />
    <path
       transform="matrix(-1,0,0,1,755.90551,-53.975)"
       id="path1573"
       d="m 50.648809,218.47024 35.529762,-72.57143 h 27.642859 l 35.52976,72.57143 z"
       style="fill:#fbdeb7;fill-opacity:1;stroke:none;stroke-width:0.264583px;stroke-linecap:butt;stroke-linejoin:miter;stroke-opacity:1" />
    <path
       style="fill:#facba2;fill-opacity:1;stroke-width:2.85714"
       d="m 304.28571,620.99792 c 0,-2.44469 43.00011,-208.80465 43.58644,-209.1738 0.3846,-0.24215 16.12785,-12.07529 34.98499,-26.29589 18.85714,-14.22059 37.8418,-26.68818 42.18813,-27.70576 l 7.90241,-1.85014 64.24044,130.50806 c 35.33225,71.77944 64.24045,131.59476 64.24045,132.92294 0,1.32818 -57.85714,2.41488 -128.57143,2.41488 -70.71429,0 -128.57143,-0.36913 -128.57143,-0.82029 z"
       id="path1575"
       transform="scale(0.26458333)" />
    <path
       style="fill:#facba2;fill-opacity:1;stroke-width:2.85714"
       d="M 471.42857,311.64177 C 463.57143,307.80739 434,294.9248 405.71428,283.01381 341.60912,256.01939 281.18335,226.35604 251.76216,207.43784 l -22.52354,-14.48292 1.73091,-14.85407 c 2.70179,-23.18569 22.13123,-59.49917 42.92864,-80.233283 51.61724,-51.460168 132.81276,-60.858226 192.0222,-22.225803 45.79234,29.878176 68.91943,69.566706 71.861,123.321256 1.71217,31.28838 -2.67217,52.96968 -16.01797,79.2114 -9.29223,18.27121 -27.4985,40.88284 -32.70033,40.6128 -1.84183,-0.0956 -9.77736,-3.31107 -17.6345,-7.14545 z"
       id="path1577"
       transform="scale(0.26458333)" />
  </g>
  <g
     id="g1653"
     inkscape:groupmode="layer"
     inkscape:label="stark"
     style="display:inline">
    <path
       id="path1629"
       style="fill:#facba2;fill-opacity:1;stroke-width:0.264583"
       d="M 143.10176,54.806545 A 41.577381,41.577381 0 0 1 101.52438,96.383926 41.577381,41.577381 0 0 1 59.947002,54.806545 41.577381,41.577381 0 0 1 101.52438,13.229164 41.577381,41.577381 0 0 1 143.10176,54.806545" />
    <path
       style="fill:#ffffff;fill-opacity:1;stroke:none;stroke-width:0.26458300000000001px;stroke-linecap:butt;stroke-linejoin:miter;stroke-opacity:1"
       d="M 99.999999,163.73928 H 30.994048 v 24.19047 h 69.005951 69.005951 v -24.19047 z"
       id="path1631" />
    <path
       style="fill:#facba2;fill-opacity:1;stroke-width:0.755952"
       d="m 80.508926,164.3057 c 0,-0.64683 11.377113,-55.24623 11.532246,-55.3439 0.101759,-0.0641 4.26716,-3.21403 9.256448,-6.99991 5.61203,-4.258429 9.9111,-6.975202 11.27328,-7.124088 2.19564,-0.239985 2.24948,-0.14356 19.06894,34.155168 9.27689,18.91771 16.87557,34.65097 16.88594,34.9628 0.0104,0.31183 -15.28917,0.56696 -33.999,0.56696 -18.709819,0 -34.017854,-0.0977 -34.017854,-0.21703 z"
       id="path1633" />
    <path
       id="path1635"
       d="m 80.508926,164.3057 c 0,-0.64683 11.377113,-55.24623 11.532246,-55.3439 0.101759,-0.0641 4.26716,-3.19492 9.256448,-6.95746 4.98928,-3.762528 10.00252,-7.058789 11.14053,-7.325024 2.03175,-0.475318 2.19703,-0.227965 9.15523,13.702004 9.63488,19.28852 26.95126,55.04369 26.95126,55.64944 0,0.27059 -15.30803,0.49197 -34.01786,0.49197 -18.709819,0 -34.017854,-0.0977 -34.017854,-0.21703 z"
       style="fill:#facba2;fill-opacity:1;stroke-width:0.755952" />
    <path
       style="fill:#facba2;fill-opacity:1;stroke:none"
       d="M 50.648809,164.49524 86.178571,91.92381 h 27.642859 l 35.52976,72.57143 z"
       id="path1637" />
    <path
       style="fill:#cccccc;fill-opacity:1;stroke:none;stroke-width:0.755952"
       d="m 31.372024,175.55937 v -11.71726 h 19.65476 19.654763 v 11.71726 11.71726 H 51.026784 31.372024 Z"
       id="path1639" />
    <path
       style="fill:#cccccc;fill-opacity:1;stroke-width:0.755952"
       d="M 91.09226,94.649627 C 79.171574,91.353647 68.567773,82.350427 63.941999,71.597497 61.915764,66.887357 60.129427,58.859267 60.11134,54.381877 l -0.01312,-3.24913 3.212796,2.18921 c 9.930156,6.76645 27.999814,15.57375 51.593744,25.14723 7.89971,3.20537 14.34702,6.12139 14.32737,6.48006 -0.0628,1.14653 -9.20115,6.88807 -13.731,8.62707 -5.74855,2.20686 -18.311211,2.75926 -24.408865,1.07331 z"
       id="path1641" />
    <path
       style="fill:#cccccc;fill-opacity:1;stroke:none;stroke-width:0.755952"
       d="m 51.026784,165.86642 c 0,-0.17561 7.342108,-15.22851 16.315796,-33.4509 8.973688,-18.22238 16.834731,-34.407273 17.468985,-35.966433 1.148016,-2.82209 1.173075,-2.83482 5.5831,-2.83482 3.214121,0 4.340283,0.25934 4.103351,0.94495 -0.179607,0.51971 -3.398935,16.082883 -7.154061,34.584823 -3.755128,18.50193 -7.005769,34.40528 -7.223646,35.34077 -0.393655,1.69023 -0.486047,1.70089 -14.744832,1.70089 -7.89178,0 -14.348693,-0.14368 -14.348693,-0.31928 z"
       id="path1643" />
    <path
       style="fill:#cccccc;fill-opacity:1;stroke:none;stroke-width:0.26458300000000001px;stroke-linecap:butt;stroke-linejoin:miter;stroke-opacity:1"
       d="M 113.82143,91.923717 80.886905,117.17252 86.178569,91.923717 Z"
       id="path1645" />
    <path
       style="fill:#fbdeb7;fill-opacity:1;stroke:none;stroke-width:0.264583px;stroke-linecap:butt;stroke-linejoin:miter;stroke-opacity:1"
       d="m 50.648809,218.47024 35.529762,-72.57143 h 27.642859 l 35.52976,72.57143 z"
       id="path1647"
       transform="matrix(-1,0,0,1,755.90551,-53.975)" />
    <path
       transform="scale(0.26458333)"
       id="path1649"
       d="m 304.28571,620.99792 c 0,-2.44469 43.00011,-208.80465 43.58644,-209.1738 0.3846,-0.24215 16.12785,-12.07529 34.98499,-26.29589 18.85714,-14.22059 37.8418,-26.68818 42.18813,-27.70576 l 7.90241,-1.85014 64.24044,130.50806 c 35.33225,71.77944 64.24045,131.59476 64.24045,132.92294 0,1.32818 -57.85714,2.41488 -128.57143,2.41488 -70.71429,0 -128.57143,-0.36913 -128.57143,-0.82029 z"
       style="fill:#ffffff;fill-opacity:1;stroke-width:2.85714" />
    <path
       transform="scale(0.26458333)"
       id="path1651"
       d="M 471.42857,311.64177 C 463.57143,307.80739 434,294.9248 405.71428,283.01381 341.60912,256.01939 281.18335,226.35604 251.76216,207.43784 l -22.52354,-14.48292 1.73091,-14.85407 c 2.70179,-23.18569 22.13123,-59.49917 42.92864,-80.233283 51.61724,-51.460168 132.81276,-60.858226 192.0222,-22.225803 45.79234,29.878176 68.91943,69.566706 71.861,123.321256 1.71217,31.28838 -2.67217,52.96968 -16.01797,79.2114 -9.29223,18.27121 -27.4985,40.88284 -32.70033,40.6128 -1.84183,-0.0956 -9.77736,-3.31107 -17.6345,-7.14545 z"
       style="fill:#ffffff;fill-opacity:1;stroke-width:2.85714;stroke:none" />
  </g>
</svg>
