<?xml version="1.0" encoding="UTF-8" standalone="no"?>
<svg
   xmlns:dc="http://purl.org/dc/elements/1.1/"
   xmlns:cc="http://creativecommons.org/ns#"
   xmlns:rdf="http://www.w3.org/1999/02/22-rdf-syntax-ns#"
   xmlns:svg="http://www.w3.org/2000/svg"
   xmlns="http://www.w3.org/2000/svg"
   xmlns:sodipodi="http://sodipodi.sourceforge.net/DTD/sodipodi-0.dtd"
   xmlns:inkscape="http://www.inkscape.org/namespaces/inkscape"
   id="svg2"
   height="100%"
   width="100%"
   version="1.1"
   viewBox="0 0 2048 2048"
   inkscape:version="0.47 r22583"
   sodipodi:docname="WhiteKnight.svg">
  <defs
     id="defs9">
    <inkscape:perspective
       sodipodi:type="inkscape:persp3d"
       inkscape:vp_x="0 : 1024 : 1"
       inkscape:vp_y="0 : 1000 : 0"
       inkscape:vp_z="2048 : 1024 : 1"
       inkscape:persp3d-origin="1024 : 682.66667 : 1"
       id="perspective10" />
    <inkscape:perspective
       id="perspective3598"
       inkscape:persp3d-origin="0.5 : 0.33333333 : 1"
       inkscape:vp_z="1 : 0.5 : 1"
       inkscape:vp_y="0 : 1000 : 0"
       inkscape:vp_x="0 : 0.5 : 1"
       sodipodi:type="inkscape:persp3d" />
    <inkscape:perspective
       id="perspective3598-5"
       inkscape:persp3d-origin="0.5 : 0.33333333 : 1"
       inkscape:vp_z="1 : 0.5 : 1"
       inkscape:vp_y="0 : 1000 : 0"
       inkscape:vp_x="0 : 0.5 : 1"
       sodipodi:type="inkscape:persp3d" />
    <inkscape:perspective
       id="perspective3598-3"
       inkscape:persp3d-origin="0.5 : 0.33333333 : 1"
       inkscape:vp_z="1 : 0.5 : 1"
       inkscape:vp_y="0 : 1000 : 0"
       inkscape:vp_x="0 : 0.5 : 1"
       sodipodi:type="inkscape:persp3d" />
  </defs>
  <sodipodi:namedview
     pagecolor="#ffffff"
     bordercolor="#666666"
     borderopacity="1"
     objecttolerance="10"
     gridtolerance="10"
     guidetolerance="10"
     inkscape:pageopacity="0"
     inkscape:pageshadow="2"
     inkscape:window-width="640"
     inkscape:window-height="484"
     id="namedview7"
     showgrid="false"
     inkscape:zoom="0.11523438"
     inkscape:cx="1024"
     inkscape:cy="1024"
     inkscape:window-x="4"
     inkscape:window-y="24"
     inkscape:window-maximized="0"
     inkscape:current-layer="svg2" />
  <metadata
     id="metadata12">
    <rdf:RDF>
      <cc:Work
         rdf:about="">
        <dc:format>image/svg+xml</dc:format>
        <dc:type
           rdf:resource="http://purl.org/dc/dcmitype/StillImage" />
        <dc:title></dc:title>
      </cc:Work>
    </rdf:RDF>
  </metadata>
  <g
     id="g3337">
    <g
       style="fill:#000000"
       transform="matrix(1 0 0 -1 0 2048)"
       id="g4">
      <path
         style="fill:#000000"
         fill="currentColor"
         d="m1004 956q31-17 54-42 21 15 36.5 13.5t33.5 1.5q78 11 128.5 85t52.5 165l-19 67q-55-239-188-257-21-3-45-5.5t-53-27.5zm-258 449l-46 60q6 39 115.5 107.5t220.5 143.5l115 154 96-217q342-172 432.5-417.5t47.5-603.5q-18-128 4.5-236.5t57.5-190.5h-1242q-9 178 39 301.5t183 237.5q78 16 115 71t55 85q-236 42-292-60l-56-102-217 121 115 82-51 50-122-86-12 297 396 263q12-18 23-31t23-29l-366-241 4-125 64 41 138-144-78-65 47-28 38.5 45t108.5 73q54 18 165 27t191-74q-56-63-91-132.5t-152-102.5q-92-79-146-176.5t-48-223.5h1019q-35 133-32 234.5t12.5 199 9 205-40.5 252.5q-51 126-134 234t-262 188l-59 133-49-69q-99-62-208-131t-131-120zm292-30l-212 2 116 100q30 25 80-38.5t16-63.5zm-536-195l37-31-46-55-57 26 33 56z"
         id="path6" />
    </g>
    <path
       fill="#f9f9f9"
       stroke-width="0"
       stroke-miterlimit="3.8"
       d="m627.95 1706.3c7.0648-76.014 30.659-139.69 76.015-205.14 55.613-80.257 94.335-116.15 155.14-143.79 71.305-32.421 79.386-39.881 134.58-124.23 62.211-95.069 76.389-108.44 115.26-108.67 42.307-0.2503 94.911-25.321 129.39-61.665 56.14-59.182 85.649-170 63.301-237.71l-10.907-33.048-23.646 70.474c-34.131 101.72-65.494 146.5-123.42 176.21-17.708 9.0812-42.24 16.511-54.516 16.511s-36.546 5.9442-53.934 13.209c-28.59 11.945-35.748 11.837-74.808-1.1373-46.585-15.473-144.08-12.378-222.56 7.0666-42.821 10.609-159.72 84.484-168.05 106.2-6.1152 15.936-24.212 17.583-38.309 3.4868-7.573-7.573-1.3393-17.721 25.536-41.571l35.555-31.552-69.611-73.351-69.611-73.351-30.334 14.465-30.334 14.466-5.4281-39.602c-2.9854-21.781-5.4281-45.019-5.4281-51.639 0-6.6202 82.031-66.333 182.29-132.7 100.26-66.363 193.01-133.62 206.1-149.46 36.257-43.863 48.448-52.978 190.71-142.59 95.768-60.325 137.52-91.894 151.55-114.59l19.362-31.328 29.557 66.084c26.02 58.176 33.823 68.004 65.2 82.122 190.44 85.687 333.52 273.37 379.39 497.66 19.552 95.588 19.822 149.11 2.6248 520.68-4.224 91.27-2.2995 132.22 8.7113 185.34 7.7733 37.5 14.133 71.67 14.133 75.932 0 4.4589-214.26 7.7498-504.57 7.7498h-504.57l5.6255-60.528zm-100.15-821.94c-27.189-28.941-55.878-25.884-76.639 8.1669-22.559 37-22.124 39.113 10.943 53.104 26.933 11.396 29.471 10.737 56.361-14.65l28.158-26.584-18.823-20.036zm523.6-232.45c-4.6583-26.618-52.531-82.087-75.909-87.955-24.656-6.1883-41.776 4.1404-107.66 64.955l-47.729 44.054 117.15-1.9473c111.41-1.8518 117.01-2.7889 114.15-19.107z"
       id="path2989" />
  </g>
  <path
     style="fill:none;stroke:#000000;stroke-width:75;stroke-linecap:butt;stroke-linejoin:miter;stroke-miterlimit:4;stroke-opacity:1;stroke-dasharray:none"
     d="m 1394.0673,997.96615 c 474.7806,0 474.7806,0 474.7806,0"
     id="path2816" />
  <path
     style="fill:none;stroke:#000000;stroke-width:75;stroke-linecap:butt;stroke-linejoin:miter;stroke-miterlimit:4;stroke-opacity:1;stroke-dasharray:none"
     d="m 1397.2082,1171.5254 c 520.5668,0 520.5668,0 520.5668,0"
     id="path2816-9" />
  <path
     style="fill:none;stroke:#000000;stroke-width:75;stroke-linecap:butt;stroke-linejoin:miter;stroke-miterlimit:4;stroke-opacity:1;stroke-dasharray:none"
     d="m 1399.7235,1345.0848 c 558.9258,0 558.9258,0 558.9258,0"
     id="path2816-4" />
  <path
     style="fill:none;stroke:#000000;stroke-width:75;stroke-linecap:butt;stroke-linejoin:miter;stroke-miterlimit:4;stroke-opacity:1;stroke-dasharray:none"
     d="m 1411.4349,1527.322 c 604.9268,0 604.9268,0 604.9268,0"
     id="path2816-0" />
</svg>
